# xmcd
#
# Track frame offsets:
#	182
#	13987
#	29750
#	41317
#	57430
#	70875
#	85795
#	97997
#	111705
#	125835
#	141037
#	155047
#	170755
#	185047
#	200947
#	222162
#	237915
#	252495
#	268590
#	285105
#	302147
#	314505
#
# Disc length: 4372
#
# Revision: 3
# Processed by: cddbd v1.5.1PL0 Copyright (c) Steve Scherf et al.
# Submitted via: CDValet v3.31 - Copyright (c) 1997 Greg Leichner
# Normalized: r1:TDELIM( - ),TSWAP
#
DISCID=5a111216
DTITLE=Various Artist - Country Music Month `95
DYEAR=1900
DGENRE=
TTITLE0=Dwight Yokam - Guitars, Cadillacs
TTITLE1=Little Texas - God Blessed Texas
TTITLE2=Travis Tritt - Here's A Quarter
TTITLE3=Randy Travis - Forever and Ever, Amen
TTITLE4=Conway Twitty - I Don't Know A Thing About Love
TTITLE5=Pam Tillis - Maybe It Was Memphis
TTITLE6=Hank Williams, Jr. - Born To Boogie
TTITLE7=John Anderson - Swingin'
TTITLE8=Randy Travis - On The Other Hand
TTITLE9=Nitty Gritty Dirt Band - Fishin' In The Dark
TTITLE10=Emmylou Harris - Two More Bottles of Wine
TTITLE11=Holly Dunn - Daddy's hands
TTITLE12=Eddie Rabbitt - I Love A Rainy Night
TTITLE13=Johnny Lee - Lookin' For Love
TTITLE14=Garry Morris - The Wind Beneath My Wings
TTITLE15=Highway 101 - The Bed You Made For Me
TTITLE16=The Forester Sisters - I Fell In Love Again Last Night
TTITLE17=Kenny Rogers - Lucille
TTITLE18=T.G. Sheppard - I Loved 'em Every One
TTITLE19=Southern Pacific - New Shade Of Blue
TTITLE20=Crystal Gayle - Baby What About You
TTITLE21=Texas Tornados - (Hey Baby) Que Paso
EXTD=
EXTT0=
EXTT1=
EXTT2=
EXTT3=
EXTT4=
EXTT5=
EXTT6=
EXTT7=
EXTT8=
EXTT9=
EXTT10=
EXTT11=
EXTT12=
EXTT13=
EXTT14=
EXTT15=
EXTT16=
EXTT17=
EXTT18=
EXTT19=
EXTT20=
EXTT21=
PLAYORDER=
